<?xml version="1.0" encoding="iso-8859-1"?>
<!-- Uploaded to: SVG Repo, www.svgrepo.com, Generator: SVG Repo Mixer Tools -->
<svg version="1.1" id="Layer_1" xmlns="http://www.w3.org/2000/svg" xmlns:xlink="http://www.w3.org/1999/xlink" 
	 viewBox="0 0 512 512" xml:space="preserve">
<path style="fill:#FF6465;" d="M153.517,221.918H141.5v90.71h102.727l0,0C244.227,262.53,203.615,221.918,153.517,221.918z"/>
<path style="fill:#C89173;" d="M80.369,329.319L80.369,329.319c0,43.154,34.983,78.139,78.139,78.139h131.746
	c43.154,0,78.139-34.983,78.139-78.139l0,0H80.369z"/>
<path style="opacity:0.1;enable-background:new    ;" d="M112.85,329.319L112.85,329.319h-32.48l0,0
	c0,43.154,34.983,78.139,78.139,78.139h32.48C147.833,407.458,112.85,372.475,112.85,329.319z"/>
<path style="opacity:0.1;enable-background:new    ;" d="M80.369,329.319c0,16.214,4.94,31.274,13.396,43.76h261.233
	c8.456-12.485,13.396-27.545,13.396-43.76l0,0H80.369L80.369,329.319z"/>
<rect x="59.688" y="312.623" style="fill:#E0A381;" width="329.394" height="33.384"/>
<rect x="59.688" y="312.623" style="opacity:0.1;enable-background:new    ;" width="32.48" height="33.384"/>
<path style="opacity:0.1;enable-background:new    ;" d="M174.382,277.524c19.693,0,37.575-7.856,50.715-20.581
	c-16.599-21.306-42.479-35.026-71.58-35.026H141.5v47.745C151.389,274.678,162.556,277.524,174.382,277.524z"/>
<path style="fill:#F0C19C;" d="M220.278,204.56c0,25.348-20.548,45.897-45.897,45.897s-45.897-20.548-45.897-45.897v-33.672
	l45.896-25.736l45.897,25.736v33.672H220.278z"/>
<path style="opacity:0.1;enable-background:new    ;" d="M142.56,204.56v-33.672l38.858-21.791l-7.037-3.946l-45.896,25.736v33.672
	c0,25.348,20.548,45.897,45.897,45.897c2.393,0,4.743-0.184,7.037-0.537C159.412,246.533,142.56,227.515,142.56,204.56z"/>
<path style="fill:#FF6465;" d="M217.721,130.412c-5.425-12.016-20.465-16.098-31.221-8.475l0,0c-7.26,5.145-16.977,5.145-24.237,0
	c-10.756-7.622-25.796-3.54-31.221,8.475l-19.655,43.529h125.988L217.721,130.412z"/>
<g style="opacity:0.1;">
	<path d="M160.964,121.092c-10.635-6.437-24.711-2.221-29.922,9.32l-19.655,43.529h21.654l19.655-43.529
		C154.53,126.348,157.468,123.196,160.964,121.092z"/>
</g>
<path style="fill:#C89173;" d="M265.977,315.963c-4.422,0-8.826-1.794-12.032-5.327c-6.027-6.642-5.529-16.913,1.112-22.94
	L452.234,108.76c6.642-6.028,16.913-5.529,22.94,1.112c6.027,6.642,5.529,16.912-1.112,22.94L276.886,311.749
	C273.776,314.571,269.869,315.963,265.977,315.963z"/>
<path style="fill:#E0A381;" d="M268.05,296.358l197.176-178.937c3.483-3.161,7.963-4.51,12.307-4.137
	c-0.629-1.206-1.403-2.358-2.36-3.413c-6.026-6.641-16.298-7.141-22.94-1.112L255.058,287.697c-6.642,6.026-7.14,16.298-1.112,22.94
	c2.867,3.16,6.695,4.918,10.636,5.255C261.241,309.501,262.46,301.431,268.05,296.358z"/>
<path style="fill:#7DD2F0;" d="M244.227,278.07h-42.738l-35.356-35.356c-8.457-8.457-22.167-8.457-30.622,0
	c-8.457,8.456-8.457,22.167,0,30.624l41.698,41.698c4.06,4.06,9.569,6.341,15.311,6.341h51.708l11.966-21.654L244.227,278.07z"/>
<path style="fill:#F0C19C;" d="M266.065,278.07h-21.838v43.307h21.838c11.959,0,21.654-9.694,21.654-21.654
	C287.718,287.764,278.023,278.07,266.065,278.07z"/>
<g>
	<path style="fill:#5A4146;" d="M111.387,173.94v42.521l0,0c13.44,0,24.336-10.896,24.336-24.336V173.94H111.387z"/>
	<path style="fill:#5A4146;" d="M237.377,173.94v42.521l0,0c-13.44,0-24.336-10.896-24.336-24.336V173.94H237.377z"/>
</g>
<path style="opacity:0.1;enable-background:new    ;" d="M103.913,173.94c0-4.484,3.636-8.12,8.12-8.12H90.38
	c-4.484,0-8.12,3.636-8.12,8.12s3.636,8.12,8.12,8.12h21.654C107.549,182.06,103.913,178.424,103.913,173.94z"/>
<path d="M503.88,399.338h-20.587V134.447c2.496-3.665,3.966-7.941,4.186-12.482c0.315-6.499-1.92-12.732-6.293-17.55
	c-4.373-4.818-10.36-7.647-16.859-7.962c-6.501-0.326-12.733,1.919-17.55,6.294L262.532,269.949h-18.306h-1.581
	c-6.013-12.547-14.591-23.651-25.213-32.66c3.403-4.482,6.126-9.525,8.006-14.992c3.698,1.468,7.724,2.284,11.939,2.284
	c4.484,0,8.12-3.635,8.12-8.12V182.06h12.887c4.486,0,8.12-3.635,8.12-8.12s-3.635-8.12-8.12-8.12h-15.766l-17.497-38.75
	c-4.696-10.398-15.113-17.118-26.539-17.118c-6.028,0-11.83,1.854-16.778,5.359c-2.183,1.546-4.75,2.363-7.423,2.363
	c-2.675,0-5.241-0.817-7.424-2.363c-4.948-3.506-10.749-5.359-16.778-5.359c-11.425,0-21.843,6.719-26.539,17.118l-17.497,38.75
	H90.38c-4.484,0-8.12,3.635-8.12,8.12s3.636,8.12,8.12,8.12h12.887v34.401c0,4.486,3.636,8.12,8.12,8.12
	c4.23,0,8.269-0.822,11.979-2.301c1.723,4.95,4.159,9.631,7.24,13.893c-0.283,0.262-0.564,0.524-0.838,0.798
	c-5.623,5.623-8.721,13.101-8.721,21.054c0,7.952,3.096,15.43,8.721,21.054l3.612,3.612v21.816h-19.53
	c-4.484,0-8.12,3.635-8.12,8.12s3.636,8.12,8.12,8.12h27.65h29.937l0.029,0.029c5.625,5.622,13.101,8.72,21.053,8.72h51.706h21.838
	c0.494,0,0.986-0.013,1.478-0.038c7.631-0.375,14.515-3.636,19.583-8.711h93.83v17.144h-14.368H82.174H67.806v-17.144h13.853
	c4.484,0,8.12-3.635,8.12-8.12s-3.636-8.12-8.12-8.12H59.686c-4.484,0-8.12,3.635-8.12,8.12v33.384c0,4.486,3.636,8.12,8.12,8.12
	h16.221c4.935,16.398,14.758,31.159,28.136,42.07c1.341,1.095,2.725,2.13,4.126,3.137H73.146c-4.484,0-8.12,3.635-8.12,8.12
	s3.636,8.12,8.12,8.12h85.363h131.746h89.525c4.486,0,8.12-3.635,8.12-8.12s-3.635-8.12-8.12-8.12h-39.186
	c1.401-1.007,2.784-2.043,4.126-3.137c13.376-10.91,23.201-25.672,28.135-42.07h16.221c4.486,0,8.12-3.635,8.12-8.12v-33.384
	c0-4.486-3.635-8.12-8.12-8.12h-92.128L398.97,211.92c3.321-3.013,3.571-8.148,0.556-11.47c-3.014-3.322-8.149-3.572-11.47-0.557
	l-95.355,86.534c-0.043-0.087-0.094-0.169-0.139-0.254c-2.428-4.729-6.099-8.746-10.584-11.597c-0.075-0.048-0.145-0.101-0.22-0.147
	l175.933-159.659c1.606-1.458,3.696-2.201,5.849-2.098c2.166,0.105,4.162,1.048,5.619,2.654c1.457,1.606,2.202,3.683,2.098,5.85
	c-0.106,2.166-1.048,4.163-2.654,5.62l-56.444,51.223c-3.321,3.013-3.571,8.148-0.556,11.47c3.014,3.322,8.147,3.572,11.47,0.557
	l43.979-39.911v249.203h-36.18c-4.486,0-8.12,3.635-8.12,8.12s3.635,8.12,8.12,8.12h73.007c4.486,0,8.12-3.635,8.12-8.12
	S508.364,399.338,503.88,399.338z M290.253,399.338H158.507c-29.218,0-55.303-18.498-65.471-45.207h262.688
	C345.556,380.841,319.472,399.338,290.253,399.338z M224.227,269.949h-19.376l-13.939-13.939c5.335-1.7,10.312-4.201,14.787-7.374
	C213.082,254.657,219.337,261.859,224.227,269.949z M229.257,206.157c0-0.189-2.721-1.992-3.083-2.345
	c-3.049-2.97-5.013-7.331-5.013-11.689v-10.065h8.096C229.257,182.06,229.257,206.156,229.257,206.157z M138.443,133.753
	c2.074-4.593,6.681-7.56,11.737-7.56c2.645,0,5.2,0.82,7.388,2.369c4.942,3.502,10.756,5.353,16.814,5.353
	c6.058,0,11.87-1.85,16.813-5.353c2.188-1.55,4.742-2.369,7.388-2.369c5.056,0,9.663,2.968,11.737,7.561l14.48,32.066h-11.759
	h-77.316h-11.76L138.443,133.753z M119.507,182.06h8.096v10.065c0,5.676-3.192,11.185-8.096,14.034V182.06z M137.285,211.691
	c4.215-5.556,6.56-12.593,6.56-19.566V182.06h61.076v10.065c0,5.535,1.485,11.057,4.183,15.884c0.333,0.595,2.499,3.088,2.384,3.694
	c-1.509,7.974-5.474,14.982-11.052,20.279c-0.149,0.119-0.31,0.219-0.451,0.35c-6.228,5.747-14.401,9.288-22.853,9.897l-5.256-5.256
	c-5.623-5.622-13.1-8.72-21.053-8.72c-1.845,0-3.662,0.173-5.438,0.5C141.279,223.836,138.487,217.964,137.285,211.691z
	 M149.619,304.506v-5.577l5.577,5.577H149.619z M191.176,313.183c-4.248-0.464-7.867-3.082-10.633-6.298
	c0,0-33.301-33.301-33.304-33.304c-4.494-4.494-9.95-8.596-9.95-15.556c0-5.468,3.431-10.536,8.506-12.566
	c0.014-0.005,0.029-0.008,0.043-0.014c4.393-1.734,9.492-1.024,13.229,1.861c3.296,2.544,6.111,5.934,9.056,8.879l27.626,27.626
	c1.522,1.522,3.588,2.378,5.741,2.378h34.618v27.067H192.52C192.065,313.256,191.616,313.231,191.176,313.183z M252.346,313.256
	v-27.067h13.32h0.397c7.463,0,13.533,6.071,13.533,13.533c0,7.326-6.193,13.533-13.533,13.533H252.346z"/>
<path d="M38.54,399.338H8.12c-4.484,0-8.12,3.635-8.12,8.12s3.636,8.12,8.12,8.12h30.42c4.484,0,8.12-3.635,8.12-8.12
	S43.024,399.338,38.54,399.338z"/>
<circle cx="154.108" cy="193.724" r="6.25"/>
<circle cx="194.654" cy="193.724" r="6.25"/>
<path d="M155.434,217.957c4.052,4.71,11.136,7.52,18.947,7.52c7.809,0,14.891-2.811,18.945-7.518
	c2.926-3.4,2.543-8.526-0.855-11.451c-3.4-2.928-8.526-2.543-11.451,0.855c-0.506,0.588-2.879,1.874-6.638,1.874
	c-3.759,0-6.132-1.286-6.638-1.874c-2.925-3.4-8.053-3.784-11.451-0.857C152.893,209.431,152.509,214.558,155.434,217.957z"/>
</svg>